# xmcd
#
# Track frame offsets: 
#        150
#        18344
#        50530
#        75173
#        96218
#        114868
#        133150
#        157151
#        183819
#        199330
#
# Disc length: 2895 seconds
#
# Revision: 0
# Processed by: cddbd v1.5.2PL0 Copyright (c) Steve Scherf et al.
# Submitted via: ExactAudioCopy v0.99pb4
#
DISCID=790b4d0a
DTITLE=Brick Fields - Gospel Blue
DYEAR=2010
DGENRE=Gospel
TTITLE0=On The Vine
TTITLE1=Cryin
TTITLE2=In The Light Of Love
TTITLE3=Hopelessly Addicted
TTITLE4=Talk About The Wesather
TTITLE5=How Long
TTITLE6=These Are The Days
TTITLE7=Go On With The Soul
TTITLE8=Lord I'm Coming Home
TTITLE9=Amazing Grace
EXTD=
EXTT0=
EXTT1=
EXTT2=
EXTT3=
EXTT4=
EXTT5=
EXTT6=
EXTT7=
EXTT8=
EXTT9=
PLAYORDER=
